<svg class="write-page" width="315.332px" height="310.17px" xmlns="http://www.w3.org/2000/svg" xmlns:xlink="http://www.w3.org/1999/xlink">
  <g class="write-content write-v3" xruling="0" yruling="0" marginLeft="0" papercolor="#FFFFFF" rulecolor="#FF0000FF">
    <g class="ruleline write-std-ruling write-scale-down" fill="none" stroke="#0000FF" stroke-width="1" shape-rendering="crispEdges" vector-effect="non-scaling-stroke">
      <rect class="pagerect" fill="#FFFFFF" stroke="none" x="0" y="0" width="315.332" height="310.17" />
    </g>
    <path class="write-flat-pen" transform="translate(-194.347,-1210.113)" fill="#000000" stroke-width="1.6" __comx="157.666" __comy="154.196" __timestamp="0x17d063a0ea3" d="M208.37 1363.398 l-0.023 0.683 0.099 0.593 0.308 0.201 0.231 0.227 0.335 0.164 0.31 0.148 0.25 0.077 0.308 0.071 0.311 0.055 0.202 0.129 0.299 0.092 0.334 0.255 0.36 0.007 0.288 0.004 0.36 0.004 0.36 0.004 0.504 0.004 0.576 0.004 0.792 0.004 0.792 0.004 0.864 0.004 0.864 0.004 0.72 0.004 0.72 0.004 0.648 0.004 0.504 0.002 0.504 0.002 0.504 0.002 0.36 0.002 0.373 0.003 0.36 0.075 0.36 0.003 0.36 0.075 0.492 0.001 0.576 0.001 0.617 0.001 0.689 0.07 0.72 0.072 0.75 0.076 0.795 0.001 0.792 0.072 0.964 0.001 0.956 0 1.08 -0.071 1.131 0.001 1.224 0.001 1.204 0.001 1.152 0.072 1.171 0.001 1.171 0 1.152 -0.071 1.204 0 1.224 0 1.224 0.001 1.08 0.001 1.152 0.001 1.296 0.001 1.296 0 1.296 0 1.385 0 1.296 -0.071 1.297 0 1.224 -0.071 1.112 0 1.08 0.072 1.101 0 1.08 0 1.133 0 1.224 0.071 1.242 0 1.296 0 1.383 0 1.512 -0.071 1.497 0 1.44 0 1.423 0 1.368 0.071 1.312 0 1.296 0 1.296 0 1.368 0 1.313 0 1.296 -0.071 1.35 0 1.368 0 1.44 0 1.352 0 1.44 0.071 1.312 0 1.386 0.003 1.224 -0.067 1.258 0.003 1.205 0.074 1.225 0.075 1.315 0.076 1.474 0.004 1.44 -0.067 1.423 0.004 1.584 0.004 1.642 0.004 1.728 0.075 1.654 0.004 1.6 0.076 1.527 -0.068 1.44 0.004 1.512 -0.07 1.495 0.002 1.584 0.002 1.641 0.002 1.656 0.074 1.728 0.003 1.712 0.073 1.67 0.075 1.615 0 1.601 -0.072 1.442 -0.071 1.35 -0.07 1.329 0.001 1.296 0.073 1.296 0.001 1.296 0.073 1.388 0 1.296 0 1.277 0 1.368 0.072 1.335 0 1.296 -0.071 1.226 0 1.152 -0.071 1.032 0.001 1.008 0.072 1.129 0.001 1.08 -0.07 1.179 0 1.224 0.072 1.297 0 1.296 0.072 1.316 0.001 1.368 0.001 1.278 0.001 1.458 0.073 1.458 -0.071 1.298 0.001 1.319 -0.072 1.132 -0.069 1.106 0 1.152 0.072 1.267 0 1.296 -0.071 1.182 0 1.224 0.072 1.225 0.001 1.296 0.072 1.316 0 1.296 0.001 1.274 0 1.224 0.072 1.245 0 1.08 0 1.104 0 1.08 -0.071 1.15 0 1.152 -0.071 1.179 0 1.224 0.072 1.173 0 1.152 0 1.202 0 1.224 0.072 1.317 0 1.296 0 1.318 0 1.224 -0.071 1.153 0 1.152 -0.071 1.201 0 1.152 0 1.224 0 1.224 0 1.129 0 1.152 0.071 1.152 0 1.152 0.071 1.126 0 1.152 -0.071 1.057 0 1.008 0 0.982 0 1.008 0.072 0.962 0 0.864 0 0.905 0 0.864 0.071 0.967 0 0.936 0 0.981 0 1.008 0.071 1.034 0.001 0.936 0.001 0.962 0 1.008 -0.071 1.01 0.002 0.936 -0.07 0.953 0.002 1.008 0.073 0.963 0.001 1.008 0.001 0.907 0.001 0.936 0.072 0.893 0.001 0.864 0.001 0.826 0.001 0.792 -0.071 0.686 0 0.792 0.001 0.72 0 0.75 0.001 0.648 0.071 0.762 0 0.69 0 0.648 -0.071 0.581 0 0.576 -0.071 0.475 0 0.504 0.071 0.576 -0.001 0.504 0.071 0.486 0 0.432 0 0.504 -0.001 0.504 -0.001 0.504 -0.001 0.504 -0.001 0.504 0 0.432 0 0.432 0 0.36 0 0.432 0 0.36 0 0.36 0 0.288 0 0.288 0 0.288 0 0.288 0 0.288 0 0.288 0 0.216 0 0.288 0 0.216 0 0.288 0 0.216 0 0.36 0 0.288 0 0.288 0 0.216 0 0.36 0 0.36 0 0.36 0 0.432 0 0.432 0 0.36 0 0.432 0 0.36 0.002 0.432 0.002 0.504 0.002 0.504 0.002 0.504 0 0.504 0 0.504 0 0.504 0 0.504 0 0.432 0 0.432 0 0.378 0 0.504 0.071 0.583 0 0.576 0.071 0.695 0 0.623 0 0.576 -0.072 0.648 0 0.576 -0.071 0.601 -0.001 0.648 0 0.576 0 0.576 0 0.504 0 0.432 0 0.432 0 0.36 0 0.36 0 0.36 0 0.288 0 0.288 0 0.288 0 0.288 0 0.36 0 0.36 0 0.36 0 0.432 0 0.432 0 0.432 0 0.432 0 0.36 0 0.288 0 0.36 0 0.36 0 0.36 0 0.288 0 0.36 0 0.288 0 0.288 0 0.288 0 0.288 0 0.216 0 0.216 0 0.288 0 0.288 0.001 0.216 0 0.288 0.001 0.36 0.009 0.36 0 0.648 0 0.936 0 1.152 0 1.152 0 1.224 0 1.008 0 0.864 0 0.648 0 0.504 0 0.36 0 0.216 0 -0.283 -1.485 -0.222 0.095 -0.214 0.001 -0.614 0 -0.751 0.074 -0.86 0.071 -0.761 0.068 -0.545 -0.002 -0.36 0.069 -0.911 -0.002 0 1.541 1.062 -0.002 0.36 -0.074 0.463 -0.002 0.823 -0.074 0.867 -0.072 0.689 -0.068 0.538 0 0.506 0.001 0.498 -0.19 -0.283 -1.485 -0.216 0 -0.36 0 -0.504 0 -0.648 0 -0.864 0 -1.008 0 -1.224 0 -1.152 0 -1.152 0 -0.936 0 -0.648 0 -0.36 0 -0.36 0.009 -0.288 0.001 -0.216 0 -0.288 0.001 -0.288 0 -0.216 0 -0.216 0 -0.288 0 -0.288 0 -0.288 0 -0.288 0 -0.36 0 -0.288 0 -0.36 0 -0.36 0 -0.36 0 -0.288 0 -0.36 0 -0.432 0 -0.432 0 -0.432 0 -0.432 0 -0.36 0 -0.36 0 -0.36 0 -0.288 0 -0.288 0 -0.288 0 -0.288 0 -0.36 0 -0.36 0 -0.36 0 -0.432 0 -0.432 0 -0.504 0 -0.576 0 -0.576 0 -0.648 0 -0.695 -0.001 -0.576 0.071 -0.648 0 -0.576 0.071 -0.529 0 -0.601 0 -0.576 -0.071 -0.569 0 -0.504 -0.071 -0.486 0 -0.432 0 -0.432 0 -0.504 0 -0.504 0 -0.504 0 -0.504 0 -0.504 0 -0.504 0.002 -0.504 0.002 -0.432 0.002 -0.36 0.002 -0.432 0 -0.36 0 -0.432 0 -0.432 0 -0.36 0 -0.36 0 -0.36 0 -0.216 0 -0.288 0 -0.288 0 -0.36 0 -0.216 0 -0.288 0 -0.216 0 -0.288 0 -0.216 0 -0.288 0 -0.288 0 -0.288 0 -0.288 0 -0.288 0 -0.288 0 -0.36 0 -0.36 0 -0.432 0 -0.36 0 -0.432 0 -0.432 0 -0.504 0 -0.504 -0.001 -0.504 -0.001 -0.504 -0.001 -0.504 -0.001 -0.432 0 -0.378 0 -0.504 -0.072 -0.576 -0.001 -0.504 -0.071 -0.677 0 -0.576 0.071 -0.571 0 -0.648 0.071 -0.606 0 -0.678 0 -0.648 -0.071 -0.834 0.001 -0.72 0 -0.792 0.001 -0.754 0 -0.792 0.072 -0.758 0.001 -0.864 0.001 -0.835 0.001 -0.936 -0.07 -0.965 0.001 -1.008 0.001 -0.909 0.001 -1.008 -0.069 -1.063 0.002 -0.936 0.073 -1.006 0.002 -1.008 0.072 -0.909 0 -0.936 0.001 -0.981 0.001 -1.008 -0.071 -1.034 0 -0.936 0 -0.905 0 -0.864 -0.071 -0.967 0 -0.864 0 -0.909 0 -1.008 -0.071 -1.034 0 -1.008 0 -1.103 0 -1.152 0.071 -1.034 0 -1.152 -0.071 -1.152 0 -1.152 -0.071 -1.175 0 -1.224 0 -1.224 0 -1.152 0 -1.247 0 -1.152 0.071 -1.151 0 -1.224 0.071 -1.274 0 -1.296 0 -1.274 0 -1.224 -0.071 -1.246 0 -1.152 0 -1.13 0 -1.224 -0.071 -1.268 0 -1.152 0.072 -1.153 0 -1.08 0.072 -1.055 0 -1.08 0 -1.202 0 -1.224 -0.071 -1.317 0 -1.296 0.001 -1.275 0 -1.296 -0.071 -1.223 0.001 -1.224 -0.071 -1.265 0 -1.296 0.072 -1.181 0 -1.152 -0.071 -1.197 0 -1.172 0.074 -1.273 0.071 -1.294 0.001 -1.422 0.071 -1.422 -0.07 -1.314 0.001 -1.368 0.001 -1.276 0.001 -1.296 -0.071 -1.295 0 -1.224 -0.071 -1.269 0 -1.08 0.072 -1.03 0.001 -1.008 -0.071 -1.128 0.001 -1.152 0.072 -1.221 0 -1.296 0.072 -1.257 0 -1.368 -0.071 -1.315 0 -1.296 0 -1.348 0 -1.296 -0.07 -1.296 0.001 -1.296 -0.07 -1.406 0.001 -1.385 0.073 -1.437 0.072 -1.566 0.071 -1.552 0 -1.641 -0.068 -1.743 -0.069 -1.727 0.003 -1.656 -0.069 -1.671 0.002 -1.584 0.002 -1.528 0.002 -1.512 0.073 -1.44 0.004 -1.496 0.074 -1.567 -0.067 -1.657 0.004 -1.728 -0.067 -1.67 0.004 -1.584 0.004 -1.456 0.004 -1.44 0.075 -1.405 0.004 -1.277 -0.066 -1.223 -0.068 -1.243 -0.069 -1.333 0.003 -1.224 0.075 -1.349 0.003 -1.28 0 -1.44 -0.071 -1.384 0 -1.44 0 -1.368 0 -1.385 0 -1.296 0.071 -1.278 0 -1.368 0 -1.296 0 -1.296 0 -1.279 0 -1.368 -0.071 -1.456 0 -1.44 0 -1.527 0 -1.512 0.072 -1.353 0 -1.296 0 -1.205 0 -1.224 -0.071 -1.17 0 -1.08 0 -1.059 0 -1.08 -0.071 -1.191 0 -1.224 0.071 -1.295 0 -1.296 0.072 -1.35 0 -1.296 0 -1.296 0 -1.296 0.001 -1.152 0.001 -1.08 0.001 -1.224 0.001 -1.224 0 -1.243 0 -1.152 0.072 -1.132 0 -1.132 0.001 -1.152 -0.071 -1.243 0.001 -1.224 0.001 -1.172 0.001 -1.08 0.072 -0.915 0 -0.908 0.001 -0.792 -0.07 -0.789 0.001 -0.689 -0.067 -0.72 -0.07 -0.75 -0.073 -0.678 0.001 -0.576 0.001 -0.372 0.001 -0.36 -0.068 -0.36 0.003 -0.36 -0.068 -0.491 0.003 -0.36 0.002 -0.504 0.002 -0.504 0.002 -0.504 0.002 -0.648 0.004 -0.72 0.004 -0.72 0.004 -0.864 0.004 -0.864 0.004 -0.792 0.004 -0.792 0.004 -0.576 0.004 -0.504 0.004 -0.36 0.004 -0.36 0.004 -0.288 0.004 -0.36 0.007 -0.242 0.255 -0.133 -0.05 -0.23 -0.156 -0.409 -0.088 -0.268 -0.072 -0.182 -0.066 -0.266 -0.137 -0.241 -0.121 -0.201 -0.201 -0.124 -0.084 -0.045 -0.263 -0.023 -0.629" />
    <path class="write-flat-pen" transform="translate(-194.347,-1210.113)" fill="#000000" stroke-width="1.6" __comx="155.253" __comy="69.11" __timestamp="0x17d063a4270" d="M348.715 1224.537 l0.368 0.725 0.161 0.223 -0.046 0.07 0.067 0.532 0.065 0.627 0.064 0.752 -0.005 0.785 0.069 0.784 -0.003 0.543 -0.003 0.428 -0.003 0.357 -0.003 0.479 0.069 0.428 -0.003 0.619 0.069 0.784 -0.001 1.041 -0.002 1.283 -0.002 1.569 -0.002 1.64 -0.002 1.783 -0.002 1.854 -0.002 1.925 -0.002 2.068 -0.001 2.068 -0.001 2.068 -0.001 1.925 -0.001 1.854 -0.001 1.64 -0.001 1.497 -0.001 1.426 -0.001 1.212 -0.001 1.234 0.071 1.07 -0.001 0.977 -0.001 1.023 0.067 0.927 -0.005 0.902 -0.005 0.927 -0.005 0.927 0 0.927 0 0.974 -0.072 0.998 0 1.093 -0.003 1.07 -0.003 1.047 -0.075 1.069 -0.003 1.235 -0.003 1.193 -0.074 1.265 -0.075 1.356 -0.076 1.373 -0.003 1.302 -0.003 1.283 -0.003 1.283 -0.003 1.336 -0.073 1.355 -0.001 1.373 -0.001 1.283 -0.001 1.303 0.07 1.283 -0.002 1.406 -0.002 1.554 -0.074 1.711 -0.001 1.94 -0.001 2.009 0.071 2.068 -0.001 2.127 -0.001 2.21 -0.001 2.055 -0.073 2.068 -0.001 1.995 -0.074 1.854 -0.002 1.797 -0.002 1.64 -0.002 1.497 -0.001 1.426 -0.001 1.283 -0.001 1.355 -0.001 1.283 -0.001 1.212 -0.001 1.283 -0.001 1.192 -0.073 1.283 0 1.304 -0.001 1.497 0 1.481 -0.073 1.64 0 1.727 -0.001 1.711 -0.001 1.854 -0.001 1.711 0 1.711 -0.001 1.623 -0.072 1.569 -0.001 1.586 0 1.64 -0.001 1.711 0 1.783 -0.001 1.783 -0.002 1.783 -0.002 1.783 -0.002 1.64 -0.002 1.621 -0.071 1.405 -0.073 1.302 0 1.233 0 1.07 -0.001 0.998 -0.001 0.971 -0.071 0.969 -0.075 0.954 0 0.956 0 0.954 0.072 0.998 0 1.065 0.072 1.212 -0.001 1.241 -0.071 1.336 -0.073 1.446 -0.001 1.516 -0.001 1.514 0.071 1.64 -0.001 1.552 -0.001 1.64 -0.001 1.64 -0.001 1.711 -0.001 1.767 -0.072 1.711 0 1.656 0 1.497 0 1.283 0 1.168 0.072 0.998 0 0.828 0 0.784 0 0.642 0 0.594 -0.072 0.57 0 0.547 0 0.57 0 0.499 0 0.57 0 0.57 0 0.713 0 0.784 0 0.856 0 0.856 0 0.713 -0.001 0.713 -0.001 0.642 -0.001 0.713 -0.001 0.713 -0.001 0.784 -0.001 0.713 -0.001 0.784 -0.001 0.784 -0.001 0.784 -0.001 0.784 -0.001 0.856 -0.001 0.856 -0.001 0.927 -0.001 0.927 -0.001 0.897 -0.072 0.927 0 0.957 0 0.856 0 0.856 0 0.784 0 0.713 0 0.784 0 0.713 0 0.749 0.072 0.784 0 0.749 0 0.82 -0.072 0.784 0 0.891 0 0.784 0 0.856 0 0.784 0 0.927 0 0.927 0 0.927 0 0.927 0 0.927 0 0.856 0 0.784 0 0.784 0 0.856 0 0.927 0 0.927 0 0.998 0 1.07 0 0.998 0 1.07 0 1.07 0 1.07 0 1.07 0 0.998 0 0.998 0 0.856 0 0.856 0 0.713 0 0.642 0 0.499 0 0.499 0 0.428 0.001 0.525 0.073 0.285 0.001 0.188 0.001 0.214 0.001 0.214 0 0.382 0.072 0.285 0.001 0.316 0.072 0.214 0 0.158 0 0.285 0 0.292 -0.064 0.38 -0.08 0.635 0 0.732 -0.072 0.927 0 1.1 0 1.07 0 1.141 0 1.07 0 1.07 0 0.897 -0.072 0.927 0 0.779 -0.072 0.784 0 0.634 -0.072 0.642 0 0.471 0 0.356 0 0.214 0 0.214 0 0.214 0 0.214 0 0.285 0 0.357 0 0.356 0 0.285 0 0.428 0 0.57 0 0.784 0 0.998 0 1.141 0 1.283 0 1.332 -0.072 1.212 0 1.235 0 1.07 0 1.031 0.072 0.856 0 0.561 -0.072 0.57 0 0.405 0.001 0.31 0.104 0.407 0.044 0.122 -0.001 0.088 -0.001 0.357 -0.001 0.356 -0.001 0.428 -0.001 0.428 -0.001 0.499 -0.001 0.428 -0.001 0.357 -0.001 0.285 -0.001 0.285 -0.001 0.285 0.011 0.214 0 0.214 0 0.357 0 0.357 0 0.385 -0.072 0.642 0 0.685 0 0.69 0.072 0.57 0 0.475 0.072 0.285 0 0.119 -0.001 0.98 1.533 0 -0.001 -0.98 0 -0.309 -0.072 -0.285 0 -0.381 -0.072 -0.57 0 -0.594 0 -0.599 0.072 -0.642 0 -0.471 0 -0.357 0 -0.357 0 -0.214 0.011 -0.214 -0.001 -0.285 -0.001 -0.285 -0.001 -0.285 -0.001 -0.357 -0.001 -0.428 -0.001 -0.499 -0.001 -0.428 -0.001 -0.428 -0.001 -0.356 -0.001 -0.357 -0.001 -0.34 -0.1 -0.306 -0.04 -0.163 0.001 -0.118 0 -0.308 0.072 -0.57 0 -0.723 -0.072 -0.856 0 -0.966 0 -1.07 0 -1.189 0.072 -1.212 0 -1.378 0 -1.283 0 -1.141 0 -0.998 0 -0.784 0 -0.57 0 -0.428 0 -0.285 0 -0.356 0 -0.357 0 -0.285 0 -0.214 0 -0.214 0 -0.214 0 -0.214 0 -0.356 0 -0.384 0.072 -0.642 0 -0.65 0.072 -0.784 0 -0.79 0.072 -0.927 0 -0.957 0 -1.07 0 -1.07 0 -1.141 0 -1.07 0 -1.039 0.072 -0.927 0 -0.694 0.064 -0.506 0.08 -0.476 0 -0.421 0 -0.285 0 -0.413 -0.072 -0.214 0.001 -0.255 -0.071 -0.285 0 -0.188 0.001 -0.214 0.001 -0.214 0.001 -0.382 -0.071 -0.285 0.001 -0.33 0 -0.428 0 -0.499 0 -0.499 0 -0.642 0 -0.713 0 -0.856 0 -0.856 0 -0.998 0 -0.998 0 -1.07 0 -1.07 0 -1.07 0 -1.07 0 -0.998 0 -1.07 0 -0.998 0 -0.927 0 -0.927 0 -0.856 0 -0.784 0 -0.784 0 -0.856 0 -0.927 0 -0.927 0 -0.927 0 -0.927 0 -0.927 0 -0.784 0 -0.856 0 -0.784 0 -0.82 0.072 -0.784 0 -0.891 0 -0.82 -0.072 -0.784 0 -0.677 0 -0.713 0 -0.784 0 -0.713 0 -0.784 0 -0.856 0 -0.856 0 -0.897 0.072 -0.927 -0.001 -0.957 -0.001 -0.927 -0.001 -0.927 -0.001 -0.856 -0.001 -0.856 -0.001 -0.784 -0.001 -0.784 -0.001 -0.784 -0.001 -0.784 -0.001 -0.713 -0.001 -0.784 -0.001 -0.713 -0.001 -0.713 -0.001 -0.642 -0.001 -0.713 0 -0.713 0 -0.856 0 -0.856 0 -0.784 0 -0.713 0 -0.57 0 -0.57 0 -0.499 0 -0.57 0 -0.451 0.072 -0.57 0 -0.69 0 -0.642 0 -0.784 0 -0.883 -0.072 -0.998 0 -1.113 0 -1.283 0 -1.497 0 -1.624 0.072 -1.711 -0.001 -1.799 -0.001 -1.711 -0.001 -1.64 -0.001 -1.64 -0.001 -1.585 -0.073 -1.64 -0.001 -1.481 -0.001 -1.478 0.071 -1.406 0.072 -1.374 -0.001 -1.326 -0.072 -1.212 0 -1.074 -0.072 -0.998 0 -0.9 0 -0.898 0.069 -0.9 0.073 -1.027 -0.001 -1.025 -0.001 -0.998 0 -1.07 0 -1.191 0.071 -1.265 0.073 -1.447 -0.002 -1.659 -0.002 -1.64 -0.002 -1.783 -0.002 -1.783 -0.001 -1.783 0 -1.783 -0.001 -1.711 0 -1.64 -0.001 -1.552 0.072 -1.569 -0.001 -1.657 0 -1.711 -0.001 -1.711 -0.001 -1.854 -0.001 -1.711 0 -1.695 0.071 -1.64 0 -1.513 -0.001 -1.497 0 -1.263 0.071 -1.283 -0.001 -1.233 -0.001 -1.283 -0.001 -1.212 -0.001 -1.283 -0.001 -1.355 -0.001 -1.283 -0.001 -1.426 -0.002 -1.497 -0.002 -1.64 -0.002 -1.769 0.07 -1.854 -0.001 -1.998 0.071 -2.068 -0.001 -2.08 -0.001 -2.21 -0.001 -2.151 -0.073 -2.068 -0.001 -1.984 -0.001 -1.91 0.07 -1.711 -0.002 -1.584 -0.002 -1.446 -0.074 -1.283 -0.001 -1.264 -0.001 -1.283 -0.001 -1.336 0.071 -1.355 -0.003 -1.373 -0.003 -1.283 -0.003 -1.283 -0.003 -1.265 0.068 -1.337 0.069 -1.354 0.07 -1.302 -0.003 -1.231 -0.003 -1.19 0.069 -1.07 -0.003 -1.092 -0.003 -1.07 0 -1.046 0.072 -0.998 0 -1.022 0 -0.927 -0.005 -0.927 -0.005 -0.927 -0.005 -0.952 -0.077 -0.927 -0.001 -0.973 -0.001 -1.02 -0.073 -1.069 -0.001 -1.191 -0.001 -1.212 -0.001 -1.426 -0.001 -1.497 -0.001 -1.64 -0.001 -1.854 -0.001 -1.925 -0.001 -2.068 -0.001 -2.068 -0.002 -2.068 -0.002 -1.925 -0.002 -1.854 -0.002 -1.783 -0.002 -1.64 -0.002 -1.569 -0.002 -1.283 -0.001 -1.098 -0.075 -0.784 -0.003 -0.665 -0.075 -0.428 -0.003 -0.377 -0.003 -0.357 -0.003 -0.428 -0.003 -0.598 -0.075 -0.784 -0.005 -0.784 -0.08 -0.816 -0.079 -0.656 -0.077 -0.466 -0.046 -0.357 -0.415 -0.49 -0.631 -0.513" />
  </g>
</svg>
