<svg class="write-page" width="539.459px" height="309.282px" xmlns="http://www.w3.org/2000/svg" xmlns:xlink="http://www.w3.org/1999/xlink">
  <g class="write-content write-v3" xruling="0" yruling="0" marginLeft="0" papercolor="#FFFFFF" rulecolor="#FF0000FF">
    <g class="ruleline write-std-ruling write-scale-down" fill="none" stroke="#0000FF" stroke-width="1" shape-rendering="crispEdges" vector-effect="non-scaling-stroke">
      <rect class="pagerect" fill="#FFFFFF" stroke="none" x="0" y="0" width="539.459" height="309.282" />
    </g>
    <path class="write-flat-pen" transform="translate(-290.588,-20.554)" fill="#000000" stroke-width="1.6" __comx="112.282" __comy="136.668" __timestamp="0x17e2500462f" d="M350 210.334 l35.445 -34.889 35.069 -34.931 35.561 -35.514 -1.075 -1.075 -35.514 35.561 -34.931 35.069 -34.889 35.445" />
    <path class="write-flat-pen" transform="translate(-290.588,-20.554)" fill="#000000" stroke-width="1.6" __comx="147.311" __comy="171.647" __timestamp="0x17e25004de5" d="M385 245.303 l35.496 -34.807 35.036 -34.964 35.568 -35.533 -1.101 -1.101 -35.533 35.568 -34.964 35.036 -34.807 35.496" />
    <path class="write-flat-pen" transform="translate(-290.588,-20.554)" fill="#000000" stroke-width="1.6" __comx="129.738" __comy="154.213" __timestamp="0x17e250079f9" d="M315 280.412 l35.38 -35.031 35.108 -34.892 35.033 -34.967 35.002 -34.998 34.96 -35.04 35.58 -35.485 -1.065 -1.065 -35.485 35.58 -35.04 34.96 -34.998 35.002 -34.967 35.033 -34.892 35.108 -35.031 35.38" />
    <path class="write-flat-pen" transform="translate(-290.588,-20.554)" fill="#000000" stroke-width="1.6" __comx="164.392" __comy="49.435" __timestamp="0x17e25012909" d="M384.676 70.324 l35.324 0.005 35 0.028 35 -0.016 35.284 -0.057 0 -0.568 -35.284 -0.057 -35 -0.016 -35 0.028 -35.324 0.005" />
    <path class="write-flat-pen" transform="translate(-290.588,-20.554)" fill="#000000" stroke-width="1.6" __comx="94.478" __comy="259.402" __timestamp="0x17e25012dd1" d="M314.799 280.201 l35.201 0.12 35 -0.003 35 0.007 35.333 0.008 0 -0.666 -35.333 0.008 -35 0.007 -35 -0.003 -35.201 0.12" />
    <path class="write-flat-pen" transform="translate(-290.588,-20.554)" fill="#000000" stroke-width="1.6" __comx="181.712" __comy="230.094" __timestamp="0x17e25013935" d="M490 244.673 l-35.726 35.327 0.726 0.726 35.327 -35.726" />
    <path class="write-flat-pen" transform="translate(-290.588,-20.554)" fill="#000000" stroke-width="1.6" __comx="76.829" __comy="55.019" __timestamp="0x17e25013f78" d="M385 69.588 l-35.578 35.412 0.578 0.578 35.412 -35.578" />
    <path class="write-flat-pen" transform="translate(-290.588,-20.554)" fill="#000000" stroke-width="1.6" __comx="146.792" __comy="264.902" __timestamp="0x17e250145bb" d="M455 279.404 l-35.836 35.596 0.836 0.836 35.596 -35.836" />
    <path class="write-flat-pen" transform="translate(-290.588,-20.554)" fill="#000000" stroke-width="1.6" __comx="111.747" __comy="20.01" __timestamp="0x17e25014a7f" d="M420 34.554 l-35.776 35.446 0.776 0.776 35.446 -35.776" />
    <path class="write-flat-pen" transform="translate(-290.588,-20.554)" fill="#000000" stroke-width="1.6" __comx="234.412" __comy="142.665" __timestamp="0x17e250174fb" d="M524.791 139.791 l-0.132 35.209 0.036 35 -0.082 35 -0.196 35.584 1.168 0 -0.196 -35.584 -0.082 -35 0.036 -35 -0.132 -35.209" />
    <path class="write-flat-pen" transform="translate(-290.588,-20.554)" fill="#000000" stroke-width="1.6" __comx="269.718" __comy="84.208" __timestamp="0x17e25017a99" d="M525 140.334 l35.339 -34.996 35.607 -35.339 -0.946 -0.946 -35.339 35.607 -34.996 35.339" />
    <path class="write-flat-pen" transform="translate(-290.588,-20.554)" fill="#000000" stroke-width="1.6" __comx="269.589" __comy="259.323" __timestamp="0x17e250192b1" d="M524.713 280.287 l35.287 0.369 35.641 -0.015 0 -1.282 -35.641 -0.015 -35.287 0.369" />
    <path class="write-flat-pen" transform="translate(-290.588,-20.554)" fill="#000000" stroke-width="1.6" __comx="339.792" __comy="224.15" __timestamp="0x17e2501980c" d="M595 280.233 l35.416 -34.817 35.578 -35.416 -0.993 -0.993 -35.416 35.578 -34.817 35.416" />
    <path class="write-flat-pen" transform="translate(-290.588,-20.554)" fill="#000000" stroke-width="1.6" __comx="374.412" __comy="189.295" __timestamp="0x17e2501a019" d="M664.773 209.773 l0 0.455 0.455 0 0 -0.455" />
    <path class="write-flat-pen" transform="translate(-290.588,-20.554)" fill="#000000" stroke-width="1.6" __comx="374.412" __comy="72.556" __timestamp="0x17e2501aaff" d="M664.634 69.634 l-0.315 35.366 -0.03 35 -0.006 35 0.032 35.685 1.37 0 0.032 -35.685 -0.006 -35 -0.03 -35 -0.315 -35.366" />
    <path class="write-flat-pen" transform="translate(-290.588,-20.554)" fill="#000000" stroke-width="1.6" __comx="339.567" __comy="49.343" __timestamp="0x17e2501af83" d="M594.68 70.32 l35.32 0.284 35.629 0.026 0 -1.259 -35.629 0.026 -35.32 0.284" />
    <path class="write-flat-pen" transform="translate(-290.588,-20.554)" fill="#000000" stroke-width="1.6" __comx="287.182" __comy="101.72" __timestamp="0x17e2501c573" d="M560 140.376 l35.918 -35.376 -0.918 -0.918 -35.376 35.918" />
    <path class="write-flat-pen" transform="translate(-290.588,-20.554)" fill="#000000" stroke-width="1.6" __comx="322.157" __comy="206.742" __timestamp="0x17e2501c97f" d="M595 245.539 l36.029 -35.539 -1.029 -1.029 -35.539 36.029" />
    <path class="write-flat-pen" transform="translate(-290.588,-20.554)" fill="#000000" stroke-width="1.6" __comx="252.168" __comy="66.732" __timestamp="0x17e2501d1c4" d="M525 105.417 l35.931 -35.417 -0.931 -0.931 -35.417 35.931" />
    <path class="write-flat-pen" transform="translate(-290.588,-20.554)" fill="#000000" stroke-width="1.6" __comx="357.087" __comy="241.8" __timestamp="0x17e2501d58c" d="M630 280.673 l36.025 -35.673 -1.025 -1.025 -35.673 36.025" />
    <path class="write-flat-pen" transform="translate(-290.588,-20.554)" fill="#000000" stroke-width="1.6" __comx="409.412" __comy="72.513" __timestamp="0x17e2502023b" d="M699.578 69.578 l-0.25 35.422 -0.035 35 0.01 35 0.06 35.636 1.273 0 0.06 -35.636 0.01 -35 -0.035 -35 -0.25 -35.422" />
    <path class="write-flat-pen" transform="translate(-290.588,-20.554)" fill="#000000" stroke-width="1.6" __comx="462.056" __comy="200.95" __timestamp="0x17e25021091" d="M699.477 210 l35.316 35.501 34.986 0.035 35.222 35.275 0.811 -0.811 -35.589 -35.536 -35.014 0.035 -35.208 -35.022" />
    <path class="write-flat-pen" transform="translate(-290.588,-20.554)" fill="#000000" stroke-width="1.6" __comx="479.658" __comy="193.272" __timestamp="0x17e25021f30" d="M734.747 210.253 l35.019 0.313 35.234 35.18 0.745 -0.745 -35.511 -35.566 -35.487 0.313" />
    <path class="write-flat-pen" transform="translate(-290.588,-20.554)" fill="#000000" stroke-width="1.6" __comx="444.412" __comy="154.17" __timestamp="0x17e25024452" d="M734.586 174.586 l0 0.829 0.829 0 0 -0.829" />
    <path class="write-flat-pen" transform="translate(-290.588,-20.554)" fill="#000000" stroke-width="1.6" __comx="479.721" __comy="138.626" __timestamp="0x17e25024840" d="M734.571 175.429 l35.712 0.256 35.764 -35.684 -1.047 -1.047 -35.283 35.363 -35.145 0.256" />
    <path class="write-flat-pen" transform="translate(-290.588,-20.554)" fill="#000000" stroke-width="1.6" __comx="479.719" __comy="68.629" __timestamp="0x17e250265bf" d="M734.582 105.418 l35.693 0.245 35.757 -35.664 -1.032 -1.032 -35.275 35.368 -35.143 0.245" />
    <path class="write-flat-pen" transform="translate(-290.588,-20.554)" fill="#000000" stroke-width="1.6" __comx="427.092" __comy="230.104" __timestamp="0x17e25028641" d="M699.384 245 l35.616 35.976 0.976 -0.976 -35.976 -35.616" />
    <path class="write-flat-pen" transform="translate(-290.588,-20.554)" fill="#000000" stroke-width="1.6" __comx="514.412" __comy="154.202" __timestamp="0x17e25030684" d="M804.634 174.634 l0 0.733 0.733 0 0 -0.733" />
  </g>
</svg>
